<?xml version="1.0" encoding="utf-8" ?>
<svg baseProfile="full" height="320" version="1.1" width="600" xmlns="http://www.w3.org/2000/svg" xmlns:ev="http://www.w3.org/2001/xml-events" xmlns:xlink="http://www.w3.org/1999/xlink"><defs /><rect fill="#222728" height="320" width="600" x="0" y="0" /><line stroke="#ff72a4" x1="165" x2="285.740728286" y1="170" y2="202.352380638" /><polygon fill="#ff72a4" points="165,170 285.740728286,202.352380638 285.740728286,137.647619362" stroke="#ff72a4" /><path d="M285.74072828613356 202.3523806378151 A125 125 0 0 0 285.74072828613356 137.6476193621849" fill="#ff72a4" stroke="#ff72a4" /><line stroke="#ff7764" x1="165" x2="285.740728286" y1="170" y2="137.647619362" /><polygon fill="#ff7764" points="165,170 285.740728286,137.647619362 253.388347648,81.6116523517" stroke="#ff7764" /><path d="M285.74072828613356 137.6476193621849 A125 125 0 0 0 253.38834764831844 81.61165235168157" fill="#ff7764" stroke="#ff7764" /><line stroke="#f69113" x1="165" x2="253.388347648" y1="170" y2="81.6116523517" /><polygon fill="#f69113" points="165,170 253.388347648,81.6116523517 197.352380638,49.2592717139" stroke="#f69113" /><path d="M253.38834764831844 81.61165235168157 A125 125 0 0 0 197.3523806378151 49.259271713866454" fill="#f69113" stroke="#f69113" /><line stroke="#b9ad00" x1="165" x2="197.352380638" y1="170" y2="49.2592717139" /><polygon fill="#b9ad00" points="165,170 197.352380638,49.2592717139 132.647619362,49.2592717139" stroke="#b9ad00" /><path d="M197.3523806378151 49.259271713866454 A125 125 0 0 0 132.64761936218488 49.259271713866454" fill="#b9ad00" stroke="#b9ad00" /><line stroke="#83ba54" x1="165" x2="132.647619362" y1="170" y2="49.2592717139" /><polygon fill="#83ba54" points="165,170 132.647619362,49.2592717139 76.6116523517,81.6116523517" stroke="#83ba54" /><path d="M132.64761936218488 49.259271713866454 A125 125 0 0 0 76.61165235168157 81.61165235168156" fill="#83ba54" stroke="#83ba54" /><line stroke="#42c180" x1="165" x2="76.6116523517" y1="170" y2="81.6116523517" /><polygon fill="#42c180" points="165,170 76.6116523517,81.6116523517 44.2592717139,137.647619362" stroke="#42c180" /><path d="M76.61165235168157 81.61165235168156 A125 125 0 0 0 44.25927171386647 137.64761936218486" fill="#42c180" stroke="#42c180" /><line stroke="#00c1b0" x1="165" x2="44.2592717139" y1="170" y2="137.647619362" /><polygon fill="#00c1b0" points="165,170 44.2592717139,137.647619362 44.2592717139,202.352380638" stroke="#00c1b0" /><path d="M44.25927171386647 137.64761936218486 A125 125 0 0 0 44.259271713866454 202.35238063781503" fill="#00c1b0" stroke="#00c1b0" /><line stroke="#55bacc" x1="165" x2="44.2592717139" y1="170" y2="202.352380638" /><polygon fill="#55bacc" points="165,170 44.2592717139,202.352380638 76.6116523517,258.388347648" stroke="#55bacc" /><path d="M44.259271713866454 202.35238063781503 A125 125 0 0 0 76.61165235168154 258.3883476483184" fill="#55bacc" stroke="#55bacc" /><line stroke="#80b2d4" x1="165" x2="76.6116523517" y1="170" y2="258.388347648" /><polygon fill="#80b2d4" points="165,170 76.6116523517,258.388347648 132.647619362,290.740728286" stroke="#80b2d4" /><path d="M76.61165235168154 258.3883476483184 A125 125 0 0 0 132.6476193621849 290.74072828613356" fill="#80b2d4" stroke="#80b2d4" /><line stroke="#95abe6" x1="165" x2="132.647619362" y1="170" y2="290.740728286" /><polygon fill="#95abe6" points="165,170 132.647619362,290.740728286 197.352380638,290.740728286" stroke="#95abe6" /><path d="M132.6476193621849 290.74072828613356 A125 125 0 0 0 197.35238063781514 290.7407282861335" fill="#95abe6" stroke="#95abe6" /><line stroke="#c09cef" x1="165" x2="197.352380638" y1="170" y2="290.740728286" /><polygon fill="#c09cef" points="165,170 197.352380638,290.740728286 253.388347648,258.388347648" stroke="#c09cef" /><path d="M197.35238063781514 290.7407282861335 A125 125 0 0 0 253.38834764831842 258.3883476483185" fill="#c09cef" stroke="#c09cef" /><line stroke="#f186d7" x1="165" x2="253.388347648" y1="170" y2="258.388347648" /><polygon fill="#f186d7" points="165,170 253.388347648,258.388347648 285.740728286,202.352380638" stroke="#f186d7" /><path d="M253.38834764831842 258.3883476483185 A125 125 0 0 0 285.74072828613356 202.3523806378151" fill="#f186d7" stroke="#f186d7" /><ellipse cx="165" cy="170" fill="#222728" rx="100" ry="100" stroke="#c4c7c8" /><polygon fill="#42484a" points="165,170 261.592582629,195.88190451 261.592582629,144.11809549" stroke="#42484a" /><path d="M261.5925826289068 195.88190451025207 A100 100 0 0 0 261.5925826289068 144.11809548974793" fill="#42484a" stroke="#42484a" /><line stroke="#686b6c" x1="165" x2="261.592582629" y1="170" y2="195.88190451" /><line stroke="#686b6c" x1="165" x2="261.592582629" y1="170" y2="144.11809549" /><rect fill="#ff72a4" height="25" stroke="#ff72a4" width="25" x="350" y="45.0" /><text fill="#c4c7c8" font-family="Helvetica, sans-serif" font-size="14" x="383" y="62.0">red (5°)</text><text fill="#ff72a4" font-family="Inconsolata, Osaka-mono, &quot;MS Gothic&quot;, monospace" font-size="16" x="503" y="62.0">#ff72a4</text><polygon fill="#42484a" points="165,170 235.710678119,99.2893218813 190.88190451,73.4074173711" stroke="#42484a" /><path d="M235.71067811865476 99.28932188134526 A100 100 0 0 0 190.88190451025207 73.40741737109317" fill="#42484a" stroke="#42484a" /><line stroke="#686b6c" x1="165" x2="235.710678119" y1="170" y2="99.2893218813" /><line stroke="#686b6c" x1="165" x2="190.88190451" y1="170" y2="73.4074173711" /><rect fill="#f69113" height="25" stroke="#f69113" width="25" x="350" y="77.14285714285714" /><text fill="#c4c7c8" font-family="Helvetica, sans-serif" font-size="14" x="383" y="94.14285714285714">orange (65°)</text><text fill="#f69113" font-family="Inconsolata, Osaka-mono, &quot;MS Gothic&quot;, monospace" font-size="16" x="503" y="94.14285714285714">#f69113</text><polygon fill="#373c3e" points="165,170 190.88190451,73.4074173711 139.11809549,73.4074173711" stroke="#373c3e" /><path d="M190.88190451025207 73.40741737109317 A100 100 0 0 0 139.11809548974793 73.40741737109317" fill="#373c3e" stroke="#373c3e" /><line stroke="#686b6c" x1="165" x2="190.88190451" y1="170" y2="73.4074173711" /><line stroke="#686b6c" x1="165" x2="139.11809549" y1="170" y2="73.4074173711" /><rect fill="#b9ad00" height="25" stroke="#b9ad00" width="25" x="350" y="109.28571428571429" /><text fill="#c4c7c8" font-family="Helvetica, sans-serif" font-size="14" x="383" y="126.28571428571429">yellow (95°)</text><text fill="#b9ad00" font-family="Inconsolata, Osaka-mono, &quot;MS Gothic&quot;, monospace" font-size="16" x="503" y="126.28571428571429">#b9ad00</text><polygon fill="#42484a" points="165,170 139.11809549,73.4074173711 94.2893218813,99.2893218813" stroke="#42484a" /><path d="M139.11809548974793 73.40741737109317 A100 100 0 0 0 94.28932188134526 99.28932188134524" fill="#42484a" stroke="#42484a" /><line stroke="#686b6c" x1="165" x2="139.11809549" y1="170" y2="73.4074173711" /><line stroke="#686b6c" x1="165" x2="94.2893218813" y1="170" y2="99.2893218813" /><rect fill="#83ba54" height="25" stroke="#83ba54" width="25" x="350" y="141.42857142857144" /><text fill="#c4c7c8" font-family="Helvetica, sans-serif" font-size="14" x="383" y="158.42857142857144">green (125°)</text><text fill="#83ba54" font-family="Inconsolata, Osaka-mono, &quot;MS Gothic&quot;, monospace" font-size="16" x="503" y="158.42857142857144">#83ba54</text><polygon fill="#42484a" points="165,170 68.4074173711,144.11809549 68.4074173711,195.88190451" stroke="#42484a" /><path d="M68.40741737109317 144.1180954897479 A100 100 0 0 0 68.40741737109316 195.88190451025204" fill="#42484a" stroke="#42484a" /><line stroke="#686b6c" x1="165" x2="68.4074173711" y1="170" y2="144.11809549" /><line stroke="#686b6c" x1="165" x2="68.4074173711" y1="170" y2="195.88190451" /><rect fill="#00c1b0" height="25" stroke="#00c1b0" width="25" x="350" y="173.57142857142858" /><text fill="#c4c7c8" font-family="Helvetica, sans-serif" font-size="14" x="383" y="190.57142857142858">cyan (185°)</text><text fill="#00c1b0" font-family="Inconsolata, Osaka-mono, &quot;MS Gothic&quot;, monospace" font-size="16" x="503" y="190.57142857142858">#00c1b0</text><polygon fill="#42484a" points="165,170 94.2893218813,240.710678119 139.11809549,266.592582629" stroke="#42484a" /><path d="M94.28932188134523 240.71067811865476 A100 100 0 0 0 139.11809548974793 266.5925826289068" fill="#42484a" stroke="#42484a" /><line stroke="#686b6c" x1="165" x2="94.2893218813" y1="170" y2="240.710678119" /><line stroke="#686b6c" x1="165" x2="139.11809549" y1="170" y2="266.592582629" /><rect fill="#80b2d4" height="25" stroke="#80b2d4" width="25" x="350" y="205.71428571428572" /><text fill="#c4c7c8" font-family="Helvetica, sans-serif" font-size="14" x="383" y="222.71428571428572">blue (245°)</text><text fill="#80b2d4" font-family="Inconsolata, Osaka-mono, &quot;MS Gothic&quot;, monospace" font-size="16" x="503" y="222.71428571428572">#80b2d4</text><polygon fill="#42484a" points="165,170 190.88190451,266.592582629 235.710678119,240.710678119" stroke="#42484a" /><path d="M190.88190451025213 266.5925826289068 A100 100 0 0 0 235.71067811865476 240.71067811865476" fill="#42484a" stroke="#42484a" /><line stroke="#686b6c" x1="165" x2="190.88190451" y1="170" y2="266.592582629" /><line stroke="#686b6c" x1="165" x2="235.710678119" y1="170" y2="240.710678119" /><rect fill="#c09cef" height="25" stroke="#c09cef" width="25" x="350" y="237.8571428571429" /><text fill="#c4c7c8" font-family="Helvetica, sans-serif" font-size="14" x="383" y="254.8571428571429">purple (305°)</text><text fill="#c09cef" font-family="Inconsolata, Osaka-mono, &quot;MS Gothic&quot;, monospace" font-size="16" x="503" y="254.8571428571429">#c09cef</text><polygon fill="#373c3e" points="165,170 235.710678119,240.710678119 261.592582629,195.88190451" stroke="#373c3e" /><path d="M235.71067811865476 240.71067811865476 A100 100 0 0 0 261.5925826289068 195.88190451025207" fill="#373c3e" stroke="#373c3e" /><line stroke="#686b6c" x1="165" x2="235.710678119" y1="170" y2="240.710678119" /><line stroke="#686b6c" x1="165" x2="261.592582629" y1="170" y2="195.88190451" /><rect fill="#f186d7" height="25" stroke="#f186d7" width="25" x="350" y="270.0" /><text fill="#c4c7c8" font-family="Helvetica, sans-serif" font-size="14" x="383" y="287.0">violet (335°)</text><text fill="#f186d7" font-family="Inconsolata, Osaka-mono, &quot;MS Gothic&quot;, monospace" font-size="16" x="503" y="287.0">#f186d7</text><text fill="#e0e3e4" font-family="Helvetica, sans-serif" font-size="14" x="383" y="28">name (hue)</text><text fill="#e0e3e4" font-family="Helvetica, sans-serif" font-size="14" x="509" y="28">rgbhex</text><ellipse cx="165" cy="170" fill="none" rx="125" ry="125" stroke="#c4c7c8" /><ellipse cx="165" cy="170" fill="none" rx="100" ry="100" stroke="#c4c7c8" /></svg>